<?xml version="1.0" standalone="no"?>
<!DOCTYPE svg PUBLIC "-//W3C//DTD SVG 20010904//EN"
 "http://www.w3.org/TR/2001/REC-SVG-20010904/DTD/svg10.dtd">
<svg version="1.0" xmlns="http://www.w3.org/2000/svg"
 width="225.000000pt" height="225.000000pt" viewBox="0 0 225.000000 225.000000"
 preserveAspectRatio="xMidYMid meet">

<g transform="translate(0.000000,225.000000) scale(0.100000,-0.100000)"
fill="#000000" stroke="none">
<path d="M1045 2189 c-33 -27 -65 -52 -72 -55 -7 -3 -48 8 -92 25 -44 17 -87
31 -95 31 -8 0 -31 -26 -52 -57 -68 -105 -64 -103 -175 -103 l-97 0 -11 -32
c-5 -18 -17 -61 -26 -94 l-17 -62 -62 -17 c-33 -9 -76 -21 -93 -26 l-33 -11 0
-97 c0 -111 2 -107 -103 -175 -31 -21 -57 -44 -57 -52 0 -8 14 -51 31 -96 20
-52 29 -86 23 -94 -5 -6 -30 -40 -56 -73 -27 -34 -48 -69 -48 -79 0 -9 25 -47
55 -85 30 -37 55 -70 55 -75 0 -4 -13 -41 -30 -82 -16 -41 -29 -83 -30 -92 0
-10 32 -38 78 -70 l77 -53 5 -105 5 -104 92 -24 c82 -22 92 -27 98 -51 3 -14
15 -57 26 -96 l20 -70 95 3 c66 3 99 0 110 -9 8 -7 35 -43 59 -81 26 -39 52
-68 61 -68 9 0 54 14 99 31 l82 31 69 -56 c38 -30 78 -56 89 -56 11 0 51 25
89 56 l68 56 88 -32 c49 -18 94 -30 101 -28 6 2 35 37 63 78 l52 75 101 0 102
0 20 70 c11 39 23 82 26 97 6 21 15 28 53 38 26 6 70 18 97 26 l50 14 0 102 0
103 78 53 c42 29 77 60 77 68 0 8 -14 50 -31 94 -17 45 -27 85 -23 92 5 7 30
41 56 74 26 34 48 70 48 80 0 11 -25 50 -56 88 l-56 68 31 85 c17 47 31 91 31
98 0 7 -26 30 -57 51 -108 71 -104 66 -102 172 1 71 -2 96 -12 103 -8 4 -51
18 -96 30 -77 20 -82 24 -89 53 -3 17 -15 59 -26 94 l-19 62 -98 0 c-111 0
-106 -3 -174 103 -21 31 -44 57 -52 57 -9 0 -52 -14 -97 -31 -52 -20 -86 -29
-94 -23 -6 5 -40 30 -73 57 -34 26 -69 47 -79 46 -9 0 -44 -23 -77 -50z m-417
-806 l3 -53 -105 0 -106 0 0 -60 0 -60 95 0 95 0 0 -55 0 -55 -95 0 -94 0 -3
-107 -3 -108 -62 -3 -63 -3 0 281 0 280 168 -2 167 -3 3 -52z m402 31 c98 -57
107 -194 17 -252 l-27 -18 25 -24 c17 -16 36 -57 55 -120 17 -54 30 -102 30
-109 0 -7 -23 -11 -65 -11 l-64 0 -22 73 c-32 111 -40 128 -66 138 -58 22 -60
18 -68 -101 l-7 -110 -59 0 -59 0 0 274 c0 210 3 276 13 280 6 3 68 4 137 3
106 -2 130 -5 160 -23z m510 -29 l0 -55 -105 0 -105 0 0 -55 0 -55 101 0 100
0 -3 -52 -3 -53 -97 -3 -98 -3 0 -59 0 -60 110 0 110 0 0 -55 0 -55 -175 0
-175 0 0 273 c0 151 3 277 7 280 3 4 80 7 170 7 l163 0 0 -55z m435 0 l0 -50
-105 -5 -105 -5 -3 -52 -3 -53 100 0 101 0 0 -55 0 -55 -100 0 -101 0 3 -57 3
-58 113 -3 112 -3 0 -54 0 -55 -180 0 -180 0 0 273 c0 151 3 277 7 281 4 3 81
5 172 4 l166 -3 0 -50z"/>
<path d="M850 1265 l0 -75 43 6 c57 9 76 20 83 49 15 61 -18 95 -92 95 l-34 0
0 -75z"/>
</g>
</svg>
